# xmcd
#
# Track frame offsets: 
#        150
#        19275
#        40330
#        60612
#
# Disc length: 1134 seconds
#
# Revision: 2
# Processed by: cddbd v1.5.2PL0 Copyright (c) Steve Scherf et al.
# Submitted via: ExactAudioCopy v1.3
#
DISCID=2f046c04
DTITLE=East 17 Feat. Gabrielle - If You Ever
DYEAR=1996
DGENRE=Pop
TTITLE0=If You Ever (Smoove Mix - 7'')
TTITLE1=East 17 - Stay Another Day (Live)
TTITLE2=East 17 - Around The World (Live)
TTITLE3=East 17 - It's Alright (Live)
EXTD=YEAR: 1996
EXTT0=
EXTT1=
EXTT2=
EXTT3=
PLAYORDER=
